PathFileType	4	(X/Y/Z)	7_coords_data.trc
DataRate	CameraRate	NumFrames	NumMarkers	Units	OrigDataRate	OrigDataStartFrame	OrigNumFrames
30.0	30.0	5	21	m	30.0	21	73
Frame#	Time	THUMB_TIP	THUMB_IP	THUMB_MCP	THUMB_CMC	INDEX_TIP	INDEX_DIP	INDEX_PIP	INDEX_MCP	MIDDLE_TIP	MIDDLE_DIP	MIDDLE_PIP	MIDDLE_MCP	RING_TIP	RING_DIP	RING_PIP	RING_MCP	PINKY_TIP	PINKY_DIP	PINKY_PIP	PINKY_MCP	WRIST
X1	Y1	Z1	X2	Y2	Z2	X3	Y3	Z3	X4	Y4	Z4	X5	Y5	Z5	X6	Y6	Z6	X7	Y7	Z7	X8	Y8	Z8	X9	Y9	Z9	X10	Y10	Z10	X11	Y11	Z11	X12	Y12	Z12	X13	Y13	Z13	X14	Y14	Z14	X15	Y15	Z15	X16	Y16	Z16	X17	Y17	Z17	X18	Y18	Z18	X19	Y19	Z19	X20	Y20	Z20	X21	Y21	Z21
20	0.6666666666666666	0.013618599891662598	-0.04823690032958984	1.0008499755859375	-0.0032250699996948244	-0.0376254997253418	1.0184199829101563	-0.023841299057006837	-0.034831100463867185	1.0406500244140624	-0.040147098541259765	-0.012130800247192383	1.056800048828125	0.008609199523925781	-0.001843829989433288	0.9372559814453125	-0.008659299850463867	-0.008328330039978028	0.9494390258789063	-0.024629100799560547	-0.014030799865722657	0.96502099609375	-0.039653999328613285	-0.018116500854492186	0.9987080078125	0.004199920177459716	0.03612590026855469	0.92902197265625	-0.01229520034790039	0.027589300155639648	0.944030029296875	-0.030011999130249024	0.017588199615478514	0.962697021484375	-0.04682220077514648	0.0048619799613952635	0.9962470092773438	0.011149200439453125	0.05467549896240234	0.954593017578125	-0.006758329868316651	0.047329898834228515	0.9667529907226563	-0.026157400131225587	0.03859569931030273	0.9813270263671875	-0.04751100158691406	0.024445600509643554	1.0049400024414064	0.009378999710083007	0.06839060211181641	1.0044600219726563	-0.006733389854431152	0.060160701751708984	1.008969970703125	-0.02181060028076172	0.05222949981689453	1.0131699829101561	-0.04264250183105469	0.039016799926757814	1.0193400268554687	-0.06832080078125	0.007238329887390137	1.069219970703125
21	0.7	0.01409160041809082	-0.048918899536132814	1.0014299926757813	-0.0028680400848388674	-0.03822499847412109	1.0188900146484374	-0.023668899536132812	-0.03524050140380859	1.040949951171875	-0.039988601684570316	-0.012428400039672851	1.05706005859375	0.010025300025939942	-0.002006920099258423	0.9380850219726562	-0.007499589920043946	-0.008410169601440429	0.950010986328125	-0.023646099090576172	-0.014046899795532227	0.9654180297851562	-0.0390619010925293	-0.018265600204467772	0.9987830200195312	0.0067295398712158205	0.03576839828491211	0.930322021484375	-0.010270700454711915	0.027429500579833985	0.9449429931640625	-0.028496700286865233	0.017489999771118165	0.963198974609375	-0.04588119888305664	0.0047889800071716304	0.9963510131835938	0.01272920036315918	0.053785900115966796	0.95531201171875	-0.005383989810943603	0.04669810104370117	0.9672860107421875	-0.02518400001525879	0.038181400299072264	0.9816320190429687	-0.04683319854736328	0.0243085994720459	1.005030029296875	0.010737700462341309	0.06760009765625	1.0056099853515625	-0.005700089931488037	0.059579799652099606	1.0098099975585937	-0.020993099212646485	0.05186709976196289	1.013780029296875	-0.04216490173339844	0.038878700256347654	1.0196099853515626	-0.06817510223388672	0.007104469776153565	1.0693900146484374
22	0.7333333333333333	0.014504899978637695	-0.048846599578857425	1.0016799926757813	-0.002542469978332519	-0.03824250030517578	1.0192100219726563	-0.023403200149536132	-0.03544049835205078	1.0411199951171874	-0.03974679946899414	-0.012689000129699706	1.05731005859375	0.01152810001373291	-0.001717460036277771	0.939135986328125	-0.006188950061798096	-0.008152029991149902	0.950760009765625	-0.022624500274658205	-0.013896900177001953	0.9659760131835937	-0.03859370040893555	-0.018374399185180666	0.9989979858398438	0.008468279838562012	0.0356161003112793	0.9313820190429688	-0.008802889823913574	0.027365200042724608	0.9457139892578125	-0.02731879997253418	0.017488000869750976	0.9637030029296875	-0.04540330123901367	0.004756919860839844	0.996656005859375	0.014310000419616699	0.05300400161743164	0.9563099975585938	-0.004081540107727051	0.046173099517822266	0.967906982421875	-0.024223800659179687	0.03797589874267578	0.98202001953125	-0.04617639923095703	0.024218299865722655	1.0052899780273437	0.011969499588012696	0.06675460052490234	1.0065800170898438	-0.004715060234069824	0.058981098175048825	1.0105999755859374	-0.020034000396728514	0.051452899932861326	1.0144500122070312	-0.04153089904785156	0.03882080078125	1.0199000244140626	-0.06776740264892578	0.0069045801162719725	1.0693900146484374
23	0.7666666666666667	0.015021300315856934	-0.04810329818725586	1.001469970703125	-0.002051259994506836	-0.03776940155029297	1.0191300048828125	-0.02286739921569824	-0.035202301025390625	1.041219970703125	-0.039138401031494144	-0.012668800354003907	1.05747998046875	0.01170829963684082	-0.0014612699747085572	0.939176025390625	-0.005983500003814697	-0.007904719829559327	0.9508519897460938	-0.02241069984436035	-0.013663800239562988	0.9660339965820313	-0.038298099517822266	-0.01823270034790039	0.9992340087890625	0.008410470008850097	0.035852500915527344	0.93127197265625	-0.008761429786682129	0.027532499313354494	0.945739990234375	-0.02719809913635254	0.017635700225830078	0.96385400390625	-0.04505640029907226	0.004840050220489502	0.9969769897460937	0.01490060043334961	0.05286029815673828	0.95677197265625	-0.003621639966964721	0.04615039825439453	0.9683049926757813	-0.023849700927734373	0.03802230072021484	0.9823060302734375	-0.045830799102783204	0.024310300827026367	1.0055499877929688	0.012726300239562989	0.06624960327148438	1.0077999877929686	-0.003701889991760254	0.058713600158691405	1.0115900268554687	-0.019342100143432617	0.051287700653076175	1.0151699829101561	-0.04130179977416992	0.03882880020141601	1.0204500122070312	-0.06723709869384766	0.00692080020904541	1.0697099609375
24	0.8	0.015720100402832032	-0.046697399139404294	1.0013900146484376	-0.0013526799678802491	-0.036763900756835936	1.0190499877929688	-0.022187000274658204	-0.03456840133666992	1.041260009765625	-0.038636398315429685	-0.012224900245666503	1.057530029296875	0.011713899612426758	-0.000515034019947052	0.939260009765625	-0.005944159984588623	-0.007109720230102539	0.9509660034179688	-0.022328100204467773	-0.013054400444030763	0.9661119995117188	-0.03809569931030273	-0.017871900558471678	0.9992969970703125	0.0081907901763916	0.03667610168457031	0.9314180297851562	-0.008858019828796387	0.028231599807739257	0.945844970703125	-0.0271830997467041	0.01818079948425293	0.9639310302734375	-0.044895698547363284	0.0052090902328491215	0.9969199829101563	0.014683699607849121	0.053589599609375	0.9570750122070313	-0.003797879934310913	0.046792301177978515	0.9684390258789063	-0.02397249984741211	0.038548301696777344	0.9823880004882812	-0.04580229949951172	0.024662099838256835	1.0056199951171876	0.012665200233459472	0.06664459991455078	1.0078699951171874	-0.003735389947891235	0.05905350112915039	1.0116799926757813	-0.019391300201416016	0.051653900146484376	1.0151500244140625	-0.04134049987792969	0.0391952018737793	1.0204600219726563	-0.066910400390625	0.007174819946289062	1.070030029296875
